# xmcd
# 
# Track frame offsets:
#     150
#     15685
#     31262
#     46987
#     61452
#     79932
#     96772
#     112980
#     129355
#     145062
#     151912
# 
# Disc length: 2168
# 
# Revision: 2
# Processed by: cddbd v1.5.2PL0 Copyright (c) Steve Scherf et al.
# Submitted via: fre:ac v1.0.31
# 
DISCID=8408760b
DTITLE=Various Artist - タッチ Original Song Book2
DYEAR=1990
DGENRE=Anime
TTITLE0=岩崎良美/チェッ!チェッ!チェッ!
TTITLE1=浅倉亜季/南の風・夏少女
TTITLE2=難波圭一/夏の便り
TTITLE3=浅倉亜季/雨の中のワンボーイ
TTITLE4=岩崎良美/約束
TTITLE5=ラフ&レディ/背番号のないエース
TTITLE6=芹澤廣明/スノウ・イン・サマー
TTITLE7=日高のり子/Dreamin’kids
TTITLE8=ラフ&レディ/ガラスの青春
TTITLE9=岩崎良美/タッチ
TTITLE10=岩崎良美/君がいなければ
EXTD=
EXTT0=
EXTT1=
EXTT2=
EXTT3=
EXTT4=
EXTT5=
EXTT6=
EXTT7=
EXTT8=
EXTT9=
EXTT10=
PLAYORDER=
